<svg xmlns="http://www.w3.org/2000/svg" width="1100" height="680" viewBox="0 0 1100 680">
  <rect width="100%" height="100%" fill="white"/>
  <text x="550.0" y="34" text-anchor="middle" font-family="Arial, sans-serif" font-size="22" font-weight="700" fill="#0f172a">Comparison with Recent Heart Disease Prediction Studies</text>

  <line x1="105" y1="570.0" x2="1045" y2="570.0" stroke="#cbd5e1" stroke-width="1" opacity="0.65"/>
  <text x="93" y="575.0" text-anchor="end" font-family="Arial" font-size="13" fill="#64748b">0.0000</text>
  <line x1="105" y1="472.0" x2="1045" y2="472.0" stroke="#cbd5e1" stroke-width="1" opacity="0.65"/>
  <text x="93" y="477.0" text-anchor="end" font-family="Arial" font-size="13" fill="#64748b">0.2100</text>
  <line x1="105" y1="374.0" x2="1045" y2="374.0" stroke="#cbd5e1" stroke-width="1" opacity="0.65"/>
  <text x="93" y="379.0" text-anchor="end" font-family="Arial" font-size="13" fill="#64748b">0.4200</text>
  <line x1="105" y1="276.0" x2="1045" y2="276.0" stroke="#cbd5e1" stroke-width="1" opacity="0.65"/>
  <text x="93" y="281.0" text-anchor="end" font-family="Arial" font-size="13" fill="#64748b">0.6300</text>
  <line x1="105" y1="178.0" x2="1045" y2="178.0" stroke="#cbd5e1" stroke-width="1" opacity="0.65"/>
  <text x="93" y="183.0" text-anchor="end" font-family="Arial" font-size="13" fill="#64748b">0.8400</text>
  <line x1="105" y1="80.0" x2="1045" y2="80.0" stroke="#cbd5e1" stroke-width="1" opacity="0.65"/>
  <text x="93" y="85.0" text-anchor="end" font-family="Arial" font-size="13" fill="#64748b">1.0500</text>
  <line x1="105" y1="80" x2="105" y2="570" stroke="#0f172a" stroke-width="2"/>
  <line x1="105" y1="570" x2="1045" y2="570" stroke="#0f172a" stroke-width="2"/>
  <rect x="127.0" y="150.0" width="161.6" height="420.0" rx="6" fill="#64748b"/>
  <text x="207.8" y="142.0" text-anchor="middle" font-family="Arial" font-size="14" font-weight="700" fill="#0f172a">0.9000</text>
  <text x="207.8" y="594.0" text-anchor="middle" font-family="Arial" font-size="13" fill="#0f172a">Bouqentar ML</text>
  <rect x="310.6" y="145.3" width="161.6" height="424.7" rx="6" fill="#38bdf8"/>
  <text x="391.4" y="137.3" text-anchor="middle" font-family="Arial" font-size="14" font-weight="700" fill="#0f172a">0.9100</text>
  <text x="391.4" y="594.0" text-anchor="middle" font-family="Arial" font-size="13" fill="#0f172a">Ogunpola ML</text>
  <rect x="494.2" y="126.7" width="161.6" height="443.3" rx="6" fill="#7c3aed"/>
  <text x="575.0" y="118.7" text-anchor="middle" font-family="Arial" font-size="14" font-weight="700" fill="#0f172a">0.9500</text>
  <text x="575.0" y="594.0" text-anchor="middle" font-family="Arial" font-size="13" fill="#0f172a">Hybrid DL</text>
  <text x="575.0" y="610.0" text-anchor="middle" font-family="Arial" font-size="13" fill="#0f172a">studies</text>
  <rect x="677.8" y="112.4" width="161.6" height="457.6" rx="6" fill="#16a34a"/>
  <text x="758.6" y="104.4" text-anchor="middle" font-family="Arial" font-size="14" font-weight="700" fill="#0f172a">0.9805</text>
  <text x="758.6" y="594.0" text-anchor="middle" font-family="Arial" font-size="13" fill="#0f172a">Proposed HGB</text>
  <rect x="861.4" y="165.3" width="161.6" height="404.7" rx="6" fill="#f97316"/>
  <text x="942.2" y="157.3" text-anchor="middle" font-family="Arial" font-size="14" font-weight="700" fill="#0f172a">0.8673</text>
  <text x="942.2" y="594.0" text-anchor="middle" font-family="Arial" font-size="13" fill="#0f172a">Proposed ARF</text>
  <text x="942.2" y="610.0" text-anchor="middle" font-family="Arial" font-size="13" fill="#0f172a">adaptive</text>
  <text x="28" y="325.0" transform="rotate(-90 28 325.0)" text-anchor="middle" font-family="Arial" font-size="15" fill="#0f172a">Accuracy</text>
  <text x="550.0" y="656" text-anchor="middle" font-family="Arial" font-size="14" fill="#64748b">Literature values are contextual approximations; proposed HGB uses larger UCI-format dataset result.</text>
</svg>
