<svg xmlns="http://www.w3.org/2000/svg" width="1100" height="680" viewBox="0 0 1100 680">
  <rect width="100%" height="100%" fill="white"/>
  <text x="550.0" y="34" text-anchor="middle" font-family="Arial, sans-serif" font-size="22" font-weight="700" fill="#0f172a">Class Distribution of Larger UCI-format Dataset</text>

  <line x1="105" y1="570.0" x2="1045" y2="570.0" stroke="#cbd5e1" stroke-width="1" opacity="0.65"/>
  <text x="93" y="575.0" text-anchor="end" font-family="Arial" font-size="13" fill="#64748b">0</text>
  <line x1="105" y1="472.0" x2="1045" y2="472.0" stroke="#cbd5e1" stroke-width="1" opacity="0.65"/>
  <text x="93" y="477.0" text-anchor="end" font-family="Arial" font-size="13" fill="#64748b">120</text>
  <line x1="105" y1="374.0" x2="1045" y2="374.0" stroke="#cbd5e1" stroke-width="1" opacity="0.65"/>
  <text x="93" y="379.0" text-anchor="end" font-family="Arial" font-size="13" fill="#64748b">240</text>
  <line x1="105" y1="276.0" x2="1045" y2="276.0" stroke="#cbd5e1" stroke-width="1" opacity="0.65"/>
  <text x="93" y="281.0" text-anchor="end" font-family="Arial" font-size="13" fill="#64748b">360</text>
  <line x1="105" y1="178.0" x2="1045" y2="178.0" stroke="#cbd5e1" stroke-width="1" opacity="0.65"/>
  <text x="93" y="183.0" text-anchor="end" font-family="Arial" font-size="13" fill="#64748b">480</text>
  <line x1="105" y1="80.0" x2="1045" y2="80.0" stroke="#cbd5e1" stroke-width="1" opacity="0.65"/>
  <text x="93" y="85.0" text-anchor="end" font-family="Arial" font-size="13" fill="#64748b">600</text>
  <line x1="105" y1="80" x2="105" y2="570" stroke="#0f172a" stroke-width="2"/>
  <line x1="105" y1="570" x2="1045" y2="570" stroke="#0f172a" stroke-width="2"/>
  <rect x="127.0" y="162.5" width="437.0" height="407.5" rx="6" fill="#2563eb"/>
  <text x="345.5" y="154.5" text-anchor="middle" font-family="Arial" font-size="14" font-weight="700" fill="#0f172a">499</text>
  <text x="345.5" y="594.0" text-anchor="middle" font-family="Arial" font-size="13" fill="#0f172a">No heart</text>
  <text x="345.5" y="610.0" text-anchor="middle" font-family="Arial" font-size="13" fill="#0f172a">disease
(Class</text>
  <text x="345.5" y="626.0" text-anchor="middle" font-family="Arial" font-size="13" fill="#0f172a">0)</text>
  <rect x="586.0" y="140.4" width="437.0" height="429.6" rx="6" fill="#dc2626"/>
  <text x="804.5" y="132.4" text-anchor="middle" font-family="Arial" font-size="14" font-weight="700" fill="#0f172a">526</text>
  <text x="804.5" y="594.0" text-anchor="middle" font-family="Arial" font-size="13" fill="#0f172a">Heart</text>
  <text x="804.5" y="610.0" text-anchor="middle" font-family="Arial" font-size="13" fill="#0f172a">disease
present</text>
  <text x="804.5" y="626.0" text-anchor="middle" font-family="Arial" font-size="13" fill="#0f172a">(Class 1)</text>
  <text x="28" y="325.0" transform="rotate(-90 28 325.0)" text-anchor="middle" font-family="Arial" font-size="15" fill="#0f172a">Sample Count</text>
  <text x="550.0" y="656" text-anchor="middle" font-family="Arial" font-size="14" fill="#64748b">Total records = 1025; Class 0 = 48.68%, Class 1 = 51.32%</text>
</svg>
